<svg width="34" height="34" viewBox="0 0 34 34" fill="none" xmlns="http://www.w3.org/2000/svg">
<path d="M17 33.5C26.1127 33.5 33.5 26.1127 33.5 17C33.5 7.8873 26.1127 0.5 17 0.5C7.8873 0.5 0.5 7.8873 0.5 17C0.5 26.1127 7.8873 33.5 17 33.5Z" stroke="black"/>
<path d="M30.8749 14.0028C31.0152 15.0984 30.1046 16 29 16L20 16C18.8954 16 18 15.1046 18 14L18 4.85023C18 3.83364 18.7666 2.95869 19.7815 3.01806C24.8895 3.3169 30.0172 7.30995 30.8749 14.0028Z" fill="#667085"/>
<path d="M19.9972 30.8749C18.9016 31.0152 18 30.1046 18 29L18 20C18 18.8954 18.8954 18 20 18L29.1498 18C30.1664 18 31.0413 18.7666 30.9819 19.7815C30.6831 24.8895 26.6901 30.0172 19.9972 30.8749Z" fill="#667085"/>
</svg>
