<svg width="34" height="34" viewBox="0 0 34 34" fill="none" xmlns="http://www.w3.org/2000/svg">
<path d="M17 33.5C26.1127 33.5 33.5 26.1127 33.5 17C33.5 7.8873 26.1127 0.5 17 0.5C7.8873 0.5 0.5 7.8873 0.5 17C0.5 26.1127 7.8873 33.5 17 33.5Z" stroke="black"/>
<path d="M3.12514 19.9972C2.98475 18.9016 3.89543 18 5 18L14 18C15.1046 18 16 18.8954 16 20L16 29.1498C16 30.1664 15.2334 31.0413 14.2185 30.9819C9.11045 30.6831 3.98277 26.6901 3.12514 19.9972Z" fill="#667085"/>
<path d="M19.9972 30.8749C18.9016 31.0152 18 30.1046 18 29L18 20C18 18.8954 18.8954 18 20 18L29.1498 18C30.1664 18 31.0413 18.7666 30.9819 19.7815C30.6831 24.8895 26.6901 30.0172 19.9972 30.8749Z" fill="#667085"/>
</svg>
